<svg width="255" height="240" viewBox="0 0 255 240" fill="none" xmlns="http://www.w3.org/2000/svg">
<path d="M165.5 97.7C167.9 99.5 170.6 100.4 173.4 101.1C164.8 123.3 149.5 139.2 129.2 150.7C128 151.4 127 151.3 125.7 150.6C106.1 139.7 91.3998 124.4 82.4998 103.6C81.3998 101.1 82.2998 100.4 84.3998 100.3C86.4998 100.2 88.0998 97.2 89.8998 98.5C91.2998 99.5 91.5998 102 92.3998 103.8C99.7998 119 110.8 130.9 125.1 139.9C126.8 141 127.9 141.1 129.7 140C145.4 130 157.2 116.7 164.5 99.5C164.8 98.9 165.1 98.4 165.5 97.7Z" fill="#B71928"/>
<path d="M136.5 80.3C134.9 87.6 133.2 94.8 131.6 102.1C131.2 103.9 131 105.4 128.5 105.4C125.9 105.4 125.8 103.7 125.4 102C123.8 94.8 122.3 87.7 120 80.6C120 87.6 119.9 94.5 120.1 101.5C120.2 104.3 119.5 105.5 116.4 105.4C113.5 105.3 112.5 104.7 112.6 101.6C112.8 89.1 112.8 76.6 112.6 64.2C112.6 61 113.7 60.4 116.5 60.5C122.8 60.7 121.9 59.8 123.3 65.8C125 73.2 126.7 80.6 128.9 87.9C130.7 79.9 132.7 71.9 134.3 63.8C135.3 58.4 139.3 61 142 60.7C145.3 60.3 144.4 63.1 144.4 64.9C144.5 77.1 144.4 89.4 144.5 101.6C144.5 104.5 143.8 105.4 140.7 105.5C137.6 105.5 136.9 104.4 137 101.6C137.2 94.5 137.1 87.4 137.1 80.3C136.9 80.3 136.7 80.3 136.5 80.3Z" fill="#BD1E2D"/>
<path d="M173.1 46.2999C172.7 46.8999 172.5 47.3999 172.1 47.6999C170.3 49.2999 170.6 53.1999 168 53.2999C165.8 53.3999 163.5 51.4999 161.2 50.3999C151 45.4999 140.7 40.6999 130.5 35.7999C128.4 34.7999 126.7 34.7999 124.6 35.7999C112.9 41.3999 101.2 46.7999 89.5001 52.4999C87.0001 53.6999 85.8001 53.5999 84.9001 50.8999C84.3001 49.2999 83.2001 47.8999 82.1001 46.1999C93.2001 40.8999 104.7 36.2999 115.3 30.1999C123.9 25.2999 131.1 25.2999 139.6 30.1999C149.2 35.6999 159.5 39.7999 169.6 44.5999C170.8 45.1999 171.9 45.6999 173.1 46.2999Z" fill="#B71928"/>
<path d="M61.9 44.2C44.4 52.3 30.9 64.7 21.7 81.4C18.7 86.8 16.3 91.6999 9.3 93.0999C5.7 93.7999 2.9 97.0999 0 100.6C6.7 68.5999 32.1 46.6 61.9 44.2Z" fill="#B71928"/>
<path d="M198.2 44.5C225.9 48.8 249.4 71.6 254.9 100.1C250.2 95.4 245.5 91.6 239 90.8C237.3 90.6 237.1 88.6 236.5 87.3C228.3 70.3 216.2 57 199.7 47.6C198.2 46.7 196.6 46 195 45.3C195.7 43.4 197.1 44.4 198.2 44.5Z" fill="#B71928"/>
<path d="M242.4 108.9C235.7 105.2 229.6 107.1 221.6 115.2C224.9 90.6 217.8 69.5 200.4 51.8C212.9 55 234.3 78.9001 242.4 108.9Z" fill="#B71928"/>
<path d="M33.3002 115.4C27.8002 108.2 21.4002 105.3 13.1002 108.3C12.9002 92.7001 40.2002 55.0001 55.2002 51.1001C37.5002 69.2001 30.0002 90.2001 33.3002 115.4Z" fill="#B71928"/>
<path d="M97.4999 91.1001C100.3 98.6001 103.9 105.7 108.8 112C113.5 118.1 119.2 123 125.5 127.5C127.2 128.7 128.2 128.3 129.8 127.3C142.2 118.9 151 107.8 156.5 93.9001C156.9 93.0001 156.4 90.7001 158.8 91.7001C160.7 92.5001 160.4 93.8001 159.8 95.3001C153.6 110.9 143.6 123.2 129.2 132C127.9 132.8 127.1 132.8 125.9 132C111.5 123.3 101.4 111 95.2999 95.4001C94.2999 93.0001 95.1999 92.0001 97.4999 91.1001Z" fill="white"/>
<path d="M161.3 68.5C162.2 63.9 160.2 61.7 155.9 60C147.2 56.4 138.7 52.1 130.2 48C128.4 47.1 126.9 47.1 125 48C115.8 52.4 106.6 56.8 97.2001 60.9C94.7001 62 93.5001 63.4 93.8001 66.2C94.1001 68.5 93.9001 70.9 93.9001 74.3C91.0001 69.7 90.0001 65.7 90.3001 61.3C90.4001 60 91.4001 59.7 92.3001 59.3C103.5 54 114.6 48.8 125.7 43.5C127.5 42.7 128.8 43.2 130.3 43.9C140.8 48.9 151.2 54 161.7 58.7C164.8 60.1 165.4 62 164.9 64.8C164.4 67.6 163.5 70.4 162.2 72.9C159.9 71.9 161.4 70.1 161.3 68.5Z" fill="white"/>
<path d="M84.6998 36.8C84.6998 39.2 83.7998 41 81.3998 41.6C79.1998 42.1 77.3998 41.4 76.3998 39.3C75.2998 37.2 75.9998 35.5 77.6998 34C84.6998 27.9 92.2998 22.4 99.8998 16.9C101.6 15.7 103.4 15.6 105.1 16.9C106.9 18.3 107.3 20.3 106.4 22.3C105.6 24.1 103.9 25.1 101.8 24.7C100.8 24.5 99.8998 24 98.8998 24.4C97.3998 25 95.9998 25.8 97.7998 27.6C98.3998 28.2 98.9998 28.9 99.4998 29.6C102.6 33.1 102.6 33.7 97.9998 34.9C96.5998 35.3 95.4998 35.9 94.2998 36.7C92.0998 38.2 89.8998 39.1 88.4998 35.6C88.1998 34.8 87.6998 33.1 86.2998 33.9C85.3998 34.4 83.3998 34.8 84.6998 36.8Z" fill="white"/>
<path d="M170.4 36.6999C171.5 34.6999 169.6 34.3999 168.6 33.7999C167.3 32.9999 167.1 34.5999 166.6 35.2999C163.9 38.9999 162.7 38.8999 159.6 35.0999C159.5 34.8999 159.4 34.6999 159.3 34.4999C159 34.6999 158.7 35.0999 158.4 35.0999C156.4 35.4999 154.6 34.3999 153.5 33.0999C152.5 31.8999 154.6 30.9999 155.3 29.9999C155.6 29.4999 156.2 29.0999 156.5 28.5999C156.9 27.5999 159 27.0999 157.8 25.5999C156.8 24.1999 155.6 23.6999 153.7 24.5999C151.5 25.6999 149.8 24.2999 148.7 22.4999C147.6 20.6999 147.9 18.7999 149.5 17.3999C151.1 15.8999 153.1 15.5999 155 16.8999C162.7 22.3999 170.3 27.8999 177.5 34.1999C179.1 35.5999 179.8 37.3999 178.7 39.4999C177.6 41.5999 175.7 42.1999 173.6 41.5999C171.3 40.8999 170.2 39.1999 170.4 36.6999Z" fill="white"/>
<path d="M81.3 138C82.7 136.3 84.1 134.7 85.5 133C86.4 131.9 87.3 131.8 88.7 132.2C94.4 133.7 93.9 133.4 91.3 138.6C88.7 143.9 83.9 143.9 79.5 144.9C73.7 146.3 73.7 146.2 73.5 140.4C73.4 138.2 73.5 135.9 73.2 133.7C72.7 130.8 74.5 128.7 76.6 128.2C78.7 127.6 81 129.5 83 130.6C83.8 131 83 131.9 82.7 132.6C81.8 134.2 80.9 135.7 80.1 137.3C80.6 137.4 81 137.7 81.3 138Z" fill="white"/>
<path d="M174.7 136.9C174.5 136.4 174.3 135.8 174 135.3C171.2 130.2 171.6 129.1 177.3 128.1C180.1 127.6 180.8 130.2 181.7 132.1C181.9 132.5 181.7 133.1 181.7 133.6C181.6 146.9 181 147.4 168.3 143.4C167.1 143 161.6 136.1 161.4 134.8C161.3 133.7 162.1 133.6 162.7 133.3C165.8 132 168.8 130.9 171.1 134.6C171.8 135.7 173 136.5 174 137.4C174.2 137.3 174.5 137.1 174.7 136.9Z" fill="white"/>
<path d="M84.6998 26.0001C84.1998 25.5001 83.6998 25.1001 83.3998 24.6001C80.4998 20.4001 77.5998 16.2001 74.5998 12.0001C73.3998 10.4001 74.3998 9.70013 75.5998 9.40013C76.7998 9.10013 77.1998 5.80013 79.2998 8.30013C82.5998 12.3001 85.8998 16.2001 89.1998 20.0001C90.0998 21.1001 90.1998 21.8001 88.9998 22.7001C87.4998 23.7001 86.1998 24.8001 84.6998 26.0001Z" fill="white"/>
<path d="M181.4 10.6999C178.1 15.3999 175 19.8999 172 24.4999C170.9 26.1999 169.9 26.0999 168.9 24.7999C167.9 23.3999 164 23.2999 166 20.3999C169 16.0999 172.6 12.2999 176 8.29985C176.6 7.49985 177.2 7.19985 178.1 8.09985C178.9 8.99985 180.1 9.69985 181.4 10.6999Z" fill="white"/>
<path d="M68.2998 4.4001C68.4998 1.6001 69.9998 0.100098 72.5998 0.100098C74.9998 0.100098 76.5998 1.5001 76.6998 4.0001C76.7998 6.7001 75.1998 8.30009 72.6998 8.40009C70.0998 8.50009 68.5998 6.9001 68.2998 4.4001Z" fill="white"/>
<path d="M182.2 0C184.9 0.2 186.7 1.4 186.7 4.1C186.7 6.7 185.2 8.4 182.6 8.5C180.2 8.6 178.7 7.1 178.4 4.6C178.3 1.8 179.9 0.5 182.2 0Z" fill="white"/>
<path d="M198.2 44.5C197.2 45 195.9 43.9999 195.1 45.2999C193.8 45.0999 192.6 44.6 191.4 43.2C193.9 44 196.2 43.4 198.2 44.5Z" fill="#CD616B"/>
<path d="M161.3 68.5C161.9 69.9 160.7 71.7 162.1 73C161.7 73.6 161.1 75.1 160.8 73.2C160.5 71.8 160.3 70 161.3 68.5Z" fill="white"/>
<path d="M54.1002 89.3999C54.1002 90.7999 54.5002 92.1999 54.1002 93.3999C53.5002 95.2999 53.1002 93.6999 52.7002 93.0999C54.3002 92.2999 52.9002 90.3999 54.1002 89.3999Z" fill="#BE303D"/>
<path d="M162.1 91.1C162.2 89.8 161.7 88.4 162.8 87.3C162.8 88.6 162.7 89.9 162.6 91.2C162.6 91.2 162.4 91.3 162.3 91.3C162.3 91.2 162.2 91.1 162.1 91.1Z" fill="#E8B6BB"/>
<path d="M175.6 57.3C175.6 58.1 174.9 59.1 174.6 58.9C173.7 58.2 174.2 57.3 174.8 56.5C175.1 56.8 175.3 57.1 175.6 57.3Z" fill="#D57A83"/>
<path d="M77.3002 107.7C71.4002 104 67.9002 98.1 69.4002 90.8C70.0002 87.8 69.4002 85.8 67.5002 83.8C67.0002 83.3 65.9002 82.7999 66.5002 81.6999C71.8002 83.4999 73.3002 87.1999 70.9002 92.1999C73.4002 92.6999 75.9002 90.3 78.1002 91.8C81.2002 93.9 78.8002 96.3 77.7002 98.5C84.3002 99.1 87.6002 97.7 90.0002 93.3C88.4002 93 86.9002 92.7 84.9002 92.4C85.7002 91.4 86.3002 90.7 86.9002 90C86.1002 89.1 85.0002 89.2 84.1002 88.9C80.4002 87.6 76.9002 86 75.6002 81.8C75.1002 80.3 75.1002 78.7999 76.4002 77.6999C77.7002 76.6999 79.2002 76.8999 80.6002 77.5999C83.2002 78.9999 84.3002 81.4999 85.4002 84.0999C85.6002 84.6999 85.5002 86.2 86.2002 85.8C89.6002 83.7 88.3002 87.6999 89.8002 88.1999C91.0002 88.0999 90.5002 86.3 91.5002 86C93.0002 87.4 92.4002 89.4999 93.0002 91.1999C99.5002 87.5999 102.3 81.6999 100.4 75.1999C97.2002 79.3999 92.8002 78.7999 90.8002 73.1999C88.8002 67.7999 85.3002 62.9 84.9002 56.9C84.6002 53.5 82.8002 50.3 79.8002 47.4C79.8002 51 80.7002 53.8999 79.7002 57.0999C76.6002 51.7999 73.8002 46.7 69.1002 43.2C69.1002 44.1 69.5002 44.8 69.9002 45.5C71.5002 48.3 73.2002 51.1 74.2002 54.2C74.8002 56 74.9002 57.8 73.3002 59C71.5002 60.4 70.4002 58.4999 69.2002 57.5999C68.0002 56.6999 67.1002 55.2 64.8002 55.2C66.5002 57.1 67.4002 58.9 68.2002 60.9C68.8002 62.4 69.4002 64.1 68.1002 65.5C66.8002 67 65.2002 66.3 63.6002 65.8C61.7002 65.3 60.0002 63.8 57.5002 64.5C60.0002 66.2 61.8002 68 61.4002 71C61.0002 74 58.4002 74.6999 56.1002 75.6999C54.6002 76.3999 52.6002 76.4 51.7002 78.3C54.0002 78.7 56.4002 76.9999 58.8002 78.6999C56.7002 82.0999 54.5002 85.4999 54.4002 89.5999C53.9002 90.5999 54.2002 91.6999 54.1002 92.6999C54.0002 93.2999 53.9002 93.9 53.0002 93.3C42.5002 78.9 49.6002 66.3999 57.8002 53.5999C44.4002 59.6999 31.0002 95.5999 36.8002 108.6C37.1002 108.1 37.4002 107.7 37.6002 107.3C40.0002 103.4 43.5002 101.8 48.0002 102C52.5002 102.2 56.7002 102.4 58.3002 107.9C58.8002 109.7 60.5002 111.2 61.6002 112.8C62.8002 114.6 64.3002 115.4 66.6002 115C68.4002 114.7 70.4002 114.6 72.4002 116.6C68.7002 116.3 65.6002 116.7 63.4002 118.8C60.1002 121.8 56.5002 123.6 51.9002 123C51.2002 122.9 50.4002 123.1 49.7002 123.4C47.2002 124.5 45.9002 126.5 46.0002 129.3C46.1002 131.7 47.0002 132.6 49.7002 133.4C49.6002 131.8 48.5002 130 50.4002 128.6C51.7002 130.4 51.6002 133.5 55.2002 133.6C54.7002 130.8 54.6002 128.4 58.0002 127.4C58.1002 129.3 57.2002 131.4 59.4002 132.5C60.5002 133.1 61.3002 133.4 61.2002 131.6C60.8002 127.1 65.4002 125.6 67.2002 122.4C68.5002 120.3 71.7002 121.6 74.0002 122.9C81.5002 127.2 89.6002 130 98.3002 132.3C95.2002 128.4 92.3002 125 89.8002 121.2C86.2002 116.1 82.9002 111.2 77.3002 107.7ZM85.1002 73.1999C82.5002 71.2999 80.4002 69.7 77.8002 67.8C81.9002 67.6 84.3002 68.6999 85.1002 73.1999Z" fill="#B71928"/>
<path d="M196.9 53C201.6 59.5 205.5 65.6001 206.9 72.8001C208.3 80.1001 207.4 87 201.8 93.5C201.4 87.5 199.7 82.7001 196.6 78.3001C199.3 77.6001 201.6 78.3001 203.9 77.9001C202.1 76.8001 200.3 76.0001 198.5 75.3001C193.7 73.3001 193 71.4 195.3 66.7C195.6 66.2 196.2 65.7 195.7 65.1C195.3 64.6 194.6 64.7001 193.9 64.9001C193.1 65.2001 192.3 65.5001 191.4 65.8001C190.1 66.3001 188.7 66.7 187.5 65.7C186.1 64.5 186.6 63 186.9 61.5C187.3 59.6 189 58.2 188.9 56C187.3 56.1 186.7 57.3 185.7 58C184.6 58.7 183.7 60.2001 182.1 59.2001C180.7 58.3001 180.5 56.7001 180.8 55.2001C181.1 53.9001 181.5 52.6 182.2 51.3C183.6 48.6 185.1 45.9 186.5 43.3C186.2 43.1 186 43 185.7 42.8C181.4 47 178.2 52.0001 175.5 57.4001C175.2 57.5001 175 57.9 174.7 57.6C174.4 57.3 174.6 57.0001 174.7 56.7001C174.9 53.8001 175.1 50.9 175.3 47.3C172.8 49.6 171.3 52 170.8 54.6C169.7 60.6 167.2 66.1 165 71.7C164 74.3 162.7 76.6001 159.9 77.8001C157.5 78.9001 155.9 77.3001 154.3 75.4001C153.1 82.8001 155.8 88.1 161.9 91.2C162.8 90.1 161.8 88.6001 162.6 87.4001C162.6 87.4001 165.4 88.4001 165.3 88.4001C166.2 87.3001 165.2 83.8001 168.7 85.8001C169.3 86.1001 169.2 84.9001 169.4 84.4001C170.3 81.7001 171.6 79.4001 174 77.8001C175.3 77.0001 176.8 76.8 178.3 77.6C179.9 78.6 179.7 80.2 179.3 81.6C178.3 85.9 174.8 87.9001 171 88.8001C168.1 89.5001 167.6 90.3 169.9 92.5C168 92.9 166.5 93.3 164.6 93.7C167.9 98.3 172.1 99.4 177.3 98.7C177.1 98.2 177.1 97.8 176.8 97.6C175.5 96.2 174.9 94.6001 175.8 92.9001C176.8 91.1001 178.6 91.7 180.2 92C181.5 92.2 182.9 92.5001 184.2 92.8001C183.6 89.2001 182.9 85.5001 187.1 83.3001C183.8 87.1001 183.6 88.6 185.7 92.1C186.3 101.1 180.7 106.2 174 110.6C172.8 111.4 171.2 111.7 170.4 113.2C166.8 119.7 162.4 125.8 157.4 131.4C158.9 132 160 131.7 161.2 131.3C167.9 129.2 174.4 126.8 180.5 123.4C185.6 120.6 187.1 121 189.8 126.1C189.9 126.3 190.1 126.6 190.2 126.7C193.7 127.5 193.9 130.4 194 133.2C197.6 132.8 196.9 130 197.2 127.7C200.7 128.9 200.1 131.6 199.8 134C203.1 133.6 203.3 130.6 204.6 128.7C206.4 130.3 205 132.2 205.6 133.8C209.3 131.7 210.1 128.5 207.8 125.5C206.1 123.2 203.6 123 201.1 123.1C198.8 123.1 196.6 123.2 194.8 121.5C191.6 118.3 187.7 116.5 183 116.6C184.1 115.1 185.7 114.8 186.9 115.2C191.6 116.7 193.4 113.3 195.4 110.4C196.5 108.9 197.5 107.2 198.1 105.5C198.9 103.6 200.2 102.8 202 102.6C204.1 102.4 206.2 102.2 208.3 102.1C213.2 101.9 216 105 218.6 109.2C222.5 83 207.5 58.8 196.9 53ZM170.3 73C170.8 68.7 173 67.9001 177.1 67.8001C174.6 69.7001 172.8 71.1 170.3 73Z" fill="#B71928"/>
<path d="M21.0882 174.157C19.8455 178.04 18.6029 181.924 17.3603 185.807C16.8943 187.516 16.273 189.069 13.943 189.069C11.6131 189.069 10.9918 187.671 10.5258 185.962C9.12783 181.613 7.88519 177.264 5.71059 173.07C5.71059 177.264 5.71059 181.458 5.71059 185.652C5.71059 187.05 6.02125 188.914 3.69131 189.069C1.05072 189.224 1.05072 187.516 1.05072 185.652C1.05072 180.06 1.05072 174.468 1.05072 168.721C1.05072 166.857 0.429407 164.527 3.53599 164.682C5.86592 164.682 8.19585 164.216 8.9725 167.478C10.2151 172.293 11.9237 176.953 13.943 183.011C15.9623 176.953 17.6709 172.604 18.9135 167.944C19.8455 164.527 21.8648 164.527 24.5054 164.527C28.078 164.682 27.3013 167.167 27.3013 169.031C27.3013 174.468 27.146 179.904 27.3013 185.341C27.4566 188.758 25.748 189.379 23.1074 188.758C21.5541 183.943 23.1074 178.972 22.1755 174.002C22.1755 173.847 21.8648 173.691 21.7095 173.691C21.7095 173.691 21.3988 173.691 21.0882 174.157Z" fill="white"/>
<path d="M124.693 174.157C123.45 178.04 122.207 181.924 120.965 185.807C120.499 187.516 119.877 189.069 117.548 189.069C115.218 189.069 114.596 187.671 114.13 185.962C112.732 181.613 111.49 177.264 109.315 173.07C109.315 177.264 109.315 181.458 109.315 185.652C109.315 187.05 109.626 188.914 107.296 189.069C104.655 189.224 104.655 187.516 104.655 185.652C104.655 180.06 104.655 174.468 104.655 168.721C104.655 166.857 104.034 164.527 107.14 164.682C109.47 164.682 111.8 164.216 112.577 167.478C113.82 172.293 115.528 176.953 117.548 183.011C119.567 176.953 121.275 172.604 122.518 167.944C123.45 164.527 125.469 164.527 128.11 164.527C131.682 164.682 130.906 167.167 130.906 169.031C130.906 174.468 130.75 179.904 130.906 185.341C131.061 188.758 129.353 189.379 126.712 188.758C125.159 183.943 126.712 178.972 125.78 174.002C125.78 173.847 125.469 173.691 125.314 173.691C125.314 173.691 125.003 173.691 124.693 174.157Z" fill="white"/>
<path d="M88.6569 222.775C88.6569 220.601 88.6569 218.581 88.6569 216.407C88.6569 207.864 91.1421 205.844 99.5299 206.776C103.413 207.242 105.588 209.106 105.743 213.145C105.743 214.698 106.675 216.873 104.034 217.339C102.015 217.649 100.151 217.494 100.151 214.543C100.151 211.902 97.9766 212.213 96.268 212.368C93.938 212.523 94.0934 214.232 94.0934 215.785C94.0934 220.29 94.0934 224.639 94.0934 229.144C94.0934 230.697 93.3167 232.871 95.6467 233.493C96.8893 233.803 98.5979 234.114 99.3745 232.872C100.462 231.163 100.617 228.678 99.3745 227.435C97.5106 225.726 96.5786 224.018 97.9766 222.154C99.2192 220.601 101.704 221.377 103.568 221.688C106.675 221.998 105.277 224.639 105.432 226.348C105.588 227.435 105.432 228.678 105.432 229.765C106.364 240.017 100.617 240.017 92.0741 238.774C88.9675 238.308 88.3462 235.201 88.3462 232.25C88.6568 228.988 88.6569 225.882 88.6569 222.775Z" fill="#B81C2B"/>
<path d="M125.78 221.998C125.78 224.639 125.625 227.435 125.78 230.075C126.557 239.24 122.208 239.706 113.82 238.774C110.869 238.463 109.626 235.978 109.626 233.182C109.471 225.416 109.626 217.649 109.471 210.038C109.471 208.019 109.937 206.621 112.267 206.621C114.752 206.621 115.063 207.863 115.063 209.883C115.063 216.406 115.063 223.086 115.063 229.609C115.063 231.318 114.597 233.337 117.392 233.493C120.188 233.648 120.344 231.629 120.344 229.609C120.344 223.241 120.344 216.872 120.344 210.504C120.344 208.485 120.188 206.465 123.295 206.621C125.936 206.776 125.625 208.64 125.625 210.349C125.78 214.232 125.78 218.115 125.78 221.998Z" fill="#B91E2C"/>
<path d="M205.308 189.069C200.027 190.467 198.474 187.671 199.095 181.924C199.561 177.574 199.251 173.07 199.095 168.565C198.94 165.614 199.872 164.216 202.978 164.527C205.464 164.682 207.949 164.527 210.434 164.527C211.988 164.527 213.075 164.838 213.075 166.701C213.075 168.565 211.988 168.876 210.434 168.876C209.658 168.876 208.881 168.876 208.104 168.876C206.24 168.876 204.532 168.876 204.687 171.517C204.687 173.691 206.24 173.847 207.794 173.847C208.415 173.847 208.881 173.847 209.502 173.847C211.211 173.847 212.609 174.157 212.609 176.332C212.609 178.817 210.745 178.196 209.192 178.351C207.328 178.662 204.687 177.264 204.376 180.836C204.221 183.788 205.619 184.409 208.104 184.409C209.968 184.409 213.075 183.322 212.764 186.894C212.454 190.311 209.502 188.292 207.638 188.758C207.328 189.069 206.862 189.069 205.308 189.069Z" fill="white"/>
<path d="M33.6699 176.487C33.6699 175.711 33.6699 174.934 33.6699 174.157C33.6699 163.44 33.8252 163.284 44.6983 164.527C46.4069 164.682 47.8049 164.682 47.6495 167.012C47.4942 168.876 46.2516 169.031 44.8536 169.031C43.9216 169.031 42.9897 169.031 41.9023 169.031C40.1937 169.031 38.7958 169.187 38.7958 171.361C38.7958 173.536 40.0384 174.002 41.747 174.002C42.5237 174.002 43.3003 174.002 44.077 174.002C45.6302 174.002 46.7176 174.313 46.8729 176.177C47.0282 178.04 45.7856 178.196 44.2323 178.506C42.0577 178.817 38.6404 176.953 38.6404 181.458C38.6404 186.273 42.3683 184.254 44.5429 184.564C46.2516 184.875 47.6495 184.875 47.4942 187.05C47.3389 189.069 45.9409 188.913 44.6983 189.069C44.5429 189.069 44.3876 189.069 44.077 189.069C33.6699 189.69 33.6699 189.69 33.6699 176.487Z" fill="white"/>
<path d="M169.738 169.031C168.029 169.031 165.855 168.255 165.233 170.429C164.457 172.915 166.787 173.536 168.495 174.468C170.98 175.866 173.932 176.953 174.708 180.06C175.485 183.166 175.33 186.428 171.912 187.982C168.029 189.845 164.146 189.845 160.263 187.982C159.175 187.36 159.331 185.962 159.641 184.72C160.107 182.7 161.505 184.098 162.437 184.254C163.369 184.409 164.301 184.564 165.233 184.875C167.097 185.341 168.961 185.186 169.738 183.322C170.67 181.302 168.806 180.215 167.253 179.438C166.631 179.128 165.855 178.662 165.233 178.351C161.505 176.487 158.554 173.847 159.952 169.187C161.505 164.372 165.699 163.906 169.893 164.372C171.757 164.527 174.708 164.216 174.398 167.323C173.932 170.429 171.446 169.187 169.738 169.031Z" fill="white"/>
<path d="M250.199 169.031C248.024 168.876 245.694 168.254 244.917 170.74C244.296 172.759 246.471 173.536 248.024 174.312C249.422 175.089 250.82 175.71 252.063 176.642C254.703 178.351 255.325 180.836 254.859 183.632C254.393 186.739 252.218 188.292 249.422 188.913C247.713 189.224 246.005 189.224 244.296 189.069C241.966 188.913 239.015 188.913 239.636 185.496C240.258 181.613 242.898 184.719 244.607 184.719C246.626 184.719 248.801 185.341 249.733 183.321C250.82 180.836 248.49 180.059 246.781 179.128C246.005 178.662 245.073 178.196 244.296 177.73C239.636 174.934 238.394 170.74 241.034 167.167C243.209 164.216 250.975 163.284 253.927 165.459C254.859 166.235 254.859 166.857 254.548 167.944C253.305 170.584 251.441 169.031 250.199 169.031Z" fill="white"/>
<path d="M144.886 220.134C144.886 221.843 145.041 223.707 144.886 225.416C144.109 231.163 145.196 234.891 152.186 233.648C154.516 233.182 155.137 234.735 155.137 236.91C155.137 239.395 153.429 238.929 152.031 239.085C139.604 240.172 139.604 240.172 139.604 228.056C139.604 221.998 139.604 216.096 139.604 210.038C139.604 208.019 139.915 206.621 142.4 206.776C144.575 206.932 144.886 208.174 144.886 209.883C144.886 213.145 144.886 216.717 144.886 220.134Z" fill="#B81B2A"/>
<path d="M59.9209 164.527C62.0955 164.527 64.1147 164.527 66.2893 164.527C67.532 164.527 68.6193 164.682 68.7746 166.391C68.9299 167.944 68.3086 169.187 66.6 169.031C62.4061 168.565 62.4061 171.206 62.5615 174.157C62.7168 178.04 62.5615 181.924 62.5615 185.807C62.5615 187.826 62.0955 189.069 59.7655 189.069C57.1249 189.069 57.1249 187.516 57.1249 185.652C57.1249 182.234 57.1249 178.662 57.1249 175.245C57.1249 171.983 57.9016 168.41 52.4651 169.031C51.0671 169.187 50.4458 168.255 50.4458 166.857C50.4458 164.993 51.5331 164.682 53.0864 164.682C55.261 164.527 57.5909 164.527 59.9209 164.527Z" fill="white"/>
<path d="M135.255 223.241C135.255 227.435 135.255 231.784 135.255 235.978C135.255 237.531 135.255 239.084 132.925 239.084C130.751 239.084 129.664 238.463 129.664 236.133C129.664 227.435 129.664 218.736 129.664 210.038C129.664 208.174 129.974 206.621 132.46 206.621C134.945 206.621 135.255 208.019 135.255 209.883C135.255 214.387 135.255 218.892 135.255 223.241Z" fill="#BB2634"/>
<path d="M195.523 167.012C195.523 168.565 194.591 169.187 193.348 169.031C188.378 168.41 188.844 171.672 188.844 174.779C188.999 177.885 188.999 180.992 188.844 184.098C188.688 185.962 190.086 188.758 186.514 188.913C182.475 189.069 184.028 185.807 183.873 183.788C183.562 180.526 183.718 177.264 183.873 174.002C184.028 170.895 183.718 168.565 179.679 169.031C178.126 169.187 177.039 168.565 177.194 166.701C177.194 165.303 177.971 164.527 179.213 164.527C184.028 164.527 188.844 164.527 193.659 164.527C195.212 164.682 195.523 165.614 195.523 167.012Z" fill="white"/>
<path d="M21.0879 174.157C21.2432 173.07 21.3985 171.983 23.2625 171.206C23.2625 177.264 23.2625 183.011 23.2625 188.758C20.6219 186.428 22.4858 183.322 22.0199 180.681C21.5539 178.662 22.9518 176.177 21.0879 174.157Z" fill="white"/>
<path d="M124.693 174.157C124.848 173.07 125.004 171.983 126.867 171.206C126.867 177.264 126.867 183.011 126.867 188.758C124.227 186.428 126.091 183.322 125.625 180.681C125.314 178.662 126.557 176.177 124.693 174.157Z" fill="white"/>
<path d="M175.33 214.698C175.174 207.553 173.466 206.931 163.991 206.621C156.846 206.31 159.641 211.281 159.331 214.543C159.02 217.339 159.331 220.29 159.331 223.241C159.331 227.28 159.331 231.318 159.331 235.357C159.331 236.444 159.486 238.308 159.952 238.463C163.835 239.706 167.874 239.551 171.912 238.619C174.708 237.997 175.485 235.201 175.485 232.716C175.485 226.658 175.485 220.6 175.33 214.698ZM167.097 233.648C164.923 233.648 164.612 232.25 164.612 230.541C164.612 225.416 164.612 220.134 164.612 215.009C164.612 213.145 165.078 212.057 167.253 212.213C169.117 212.213 170.049 212.989 170.049 215.009C170.049 217.649 170.049 220.445 170.049 223.086C170.049 225.571 170.049 228.056 170.049 230.541C170.049 232.561 169.272 233.648 167.097 233.648Z" fill="#B81C2B"/>
<path d="M235.598 185.496C233.268 181.924 230.006 179.128 234.511 174.157C236.996 171.361 235.132 167.167 230.938 165.303C228.142 164.061 225.191 164.682 222.395 164.371C219.599 164.216 218.667 165.303 218.667 168.099C218.822 173.536 218.667 178.972 218.667 184.409C218.667 186.428 217.89 189.069 221.463 188.758C224.725 188.603 223.327 185.962 223.638 184.409C223.948 182.856 222.55 180.526 224.725 179.904C227.21 179.128 227.676 181.924 228.608 183.477C230.627 186.428 231.715 190.622 237.306 188.447C236.53 187.205 236.064 186.428 235.598 185.496ZM226.123 175.244C223.948 175.244 223.638 174.157 223.638 172.293C223.638 170.429 223.638 168.721 225.967 169.031C228.297 169.031 229.851 169.808 229.851 171.827C229.851 174.312 228.297 175.089 226.123 175.244Z" fill="white"/>
<path d="M85.5496 167.478C84.773 165.303 83.841 164.371 81.5111 164.371C78.8705 164.371 77.7832 165.459 77.0065 167.789C75.1426 173.38 72.968 178.662 71.4147 184.253C70.9487 185.651 68.7741 187.671 71.104 188.758C73.2786 189.69 75.7639 189.224 76.2299 185.962C76.6959 182.7 79.3365 183.166 81.6664 183.166C83.6857 183.166 86.0156 182.545 86.6369 185.651C87.2583 189.379 89.7437 189.535 93.0056 188.292C90.365 181.458 87.8797 174.468 85.5496 167.478ZM82.909 178.351C82.4431 178.972 80.1131 178.972 79.6471 178.351C77.4725 175.555 80.5791 173.225 81.2004 170.74C82.1324 173.38 85.0836 175.555 82.909 178.351Z" fill="white"/>
<path d="M156.38 185.186C154.361 179.128 152.187 173.225 150.167 167.167C149.391 164.838 147.837 164.527 145.663 164.527C143.643 164.527 142.556 164.993 141.78 167.167C139.45 174.313 136.809 181.302 134.324 188.603C136.964 189.224 139.605 190.156 140.382 186.894C141.158 183.632 142.867 183.166 145.818 183.166C148.769 183.166 151.099 183.477 151.721 187.05C152.031 189.379 154.206 189.224 155.914 188.913C158.4 188.137 156.691 186.428 156.38 185.186ZM147.993 178.351C146.75 178.662 145.352 178.662 144.109 178.351C142.867 178.04 143.488 176.798 143.799 175.866C144.575 173.847 144.42 171.672 146.284 169.808C146.905 171.983 147.682 173.847 148.303 175.866C148.459 176.643 149.235 177.885 147.993 178.351Z" fill="white"/>
</svg>
