<svg width="85" height="85" viewBox="0 0 85 85" fill="none" xmlns="http://www.w3.org/2000/svg">
<path d="M42.5 85C65.9721 85 85 65.9721 85 42.5C85 19.0279 65.9721 0 42.5 0C19.0279 0 0 19.0279 0 42.5C0 65.9721 19.0279 85 42.5 85Z" fill="white"/>
<mask id="mask0_174_94" style="mask-type:alpha" maskUnits="userSpaceOnUse" x="0" y="0" width="85" height="85">
<path d="M42.5 85C65.9721 85 85 65.9721 85 42.5C85 19.0279 65.9721 0 42.5 0C19.0279 0 0 19.0279 0 42.5C0 65.9721 19.0279 85 42.5 85Z" fill="white"/>
</mask>
<g mask="url(#mask0_174_94)">
<path d="M50.8761 36.1604C51.4458 36.5893 52.0867 36.8038 52.7514 36.9706C50.7099 42.2608 47.0781 46.0498 42.2594 48.7902C41.9746 48.957 41.7372 48.9332 41.4286 48.7664C36.7761 46.1689 33.2867 42.523 31.174 37.5664C30.9129 36.9706 31.1266 36.8038 31.625 36.78C32.1235 36.7561 32.5033 36.0413 32.9306 36.351C33.2629 36.5893 33.3341 37.1851 33.524 37.614C35.2806 41.2361 37.8918 44.0719 41.2862 46.2166C41.6897 46.4787 41.9509 46.5025 42.3781 46.2404C46.1049 43.8574 48.9059 40.6881 50.6387 36.5893C50.71 36.4464 50.7812 36.3272 50.8761 36.1604Z" fill="#B71928"/>
<path d="M43.9917 32.014C43.6119 33.7536 43.2084 35.4693 42.8286 37.2089C42.7337 37.6378 42.6862 37.9953 42.0927 37.9953C41.4756 37.9953 41.4518 37.5902 41.3569 37.1851C40.9771 35.4693 40.621 33.7774 40.0751 32.0855C40.0751 33.7536 40.0513 35.3978 40.0988 37.0659C40.1225 37.7332 39.9564 38.0191 39.2205 37.9953C38.5321 37.9715 38.2948 37.8285 38.3185 37.0898C38.366 34.111 38.366 31.1323 38.3185 28.1774C38.3185 27.4149 38.5796 27.2719 39.2443 27.2957C40.7397 27.3434 40.5261 27.1289 40.8584 28.5587C41.2619 30.3221 41.6655 32.0855 42.1877 33.8251C42.615 31.9187 43.0897 30.0123 43.4695 28.0821C43.7069 26.7953 44.6564 27.4149 45.2973 27.3434C46.0806 27.2481 45.867 27.9153 45.867 28.3442C45.8907 31.2515 45.867 34.1825 45.8907 37.0898C45.8907 37.7808 45.7246 37.9953 44.9887 38.0191C44.2528 38.0191 44.0867 37.757 44.1104 37.0898C44.1579 35.3978 44.1342 33.7059 44.1342 32.014C44.0867 32.014 44.0392 32.014 43.9917 32.014Z" fill="#BD1E2D"/>
<path d="M52.6801 23.912C52.5852 24.055 52.5377 24.1742 52.4427 24.2457C52.0155 24.6269 52.0867 25.5563 51.4695 25.5801C50.9473 25.604 50.4013 25.1512 49.8553 24.8891C47.4341 23.7214 44.9892 22.5776 42.568 21.4099C42.0695 21.1716 41.666 21.1716 41.1675 21.4099C38.3902 22.7444 35.6129 24.0312 32.8357 25.3895C32.2422 25.6755 31.9574 25.6516 31.7437 25.0082C31.6013 24.6269 31.3402 24.2933 31.0791 23.8882C33.714 22.6252 36.4437 21.5291 38.9599 20.0755C41.0013 18.9078 42.7104 18.9078 44.7281 20.0755C47.0069 21.3861 49.4518 22.3631 51.8493 23.5069C52.1341 23.6499 52.3953 23.7691 52.6801 23.912Z" fill="#B71928"/>
<path d="M26.2843 23.4119C22.1302 25.3421 18.9257 28.297 16.7418 32.2765C16.0297 33.5634 15.46 34.731 13.7984 35.0646C12.9439 35.2314 12.2792 36.0178 11.5908 36.8519C13.1812 29.2263 19.2105 23.9838 26.2843 23.4119Z" fill="#B71928"/>
<path d="M58.6385 23.4833C65.2138 24.5079 70.792 29.9411 72.0976 36.7326C70.9819 35.6126 69.8663 34.7071 68.3234 34.5164C67.9198 34.4688 67.8723 33.9922 67.7299 33.6824C65.7835 29.6313 62.9112 26.462 58.9946 24.222C58.6385 24.0075 58.2587 23.8407 57.8789 23.6739C58.0451 23.2211 58.3774 23.4594 58.6385 23.4833Z" fill="#B71928"/>
<path d="M69.1294 38.8297C67.539 37.948 66.091 38.4008 64.192 40.331C64.9753 34.4689 63.29 29.4408 59.1597 25.2229C62.1268 25.9855 67.2066 31.6808 69.1294 38.8297Z" fill="#B71928"/>
<path d="M19.4954 40.3785C18.1899 38.6627 16.6707 37.9717 14.7005 38.6865C14.653 34.9691 21.1333 25.9853 24.6939 25.0559C20.4924 29.3691 18.7121 34.3734 19.4954 40.3785Z" fill="#B71928"/>
<path d="M34.7349 34.5876C35.3996 36.3749 36.2541 38.0668 37.4173 39.5681C38.5329 41.0217 39.8859 42.1894 41.3814 43.2617C41.7849 43.5476 42.0223 43.4523 42.4021 43.214C45.3455 41.2123 47.4344 38.5672 48.74 35.2549C48.8349 35.0404 48.7163 34.4923 49.2859 34.7306C49.737 34.9213 49.6657 35.2311 49.5233 35.5885C48.0516 39.3059 45.6779 42.237 42.2597 44.334C41.9511 44.5247 41.7612 44.5247 41.4763 44.334C38.0582 42.2608 35.6607 39.3298 34.2127 35.6123C33.9753 35.0404 34.1889 34.8021 34.7349 34.5876Z" fill="#808184"/>
<path d="M49.8788 29.2019C50.0925 28.1057 49.6177 27.5814 48.597 27.1763C46.5318 26.3185 44.5142 25.2938 42.4965 24.3168C42.0692 24.1023 41.7132 24.1023 41.2621 24.3168C39.0783 25.3653 36.8945 26.4138 34.6632 27.3908C34.0697 27.6529 33.7849 27.9865 33.8561 28.6538C33.9273 29.2019 33.8798 29.7738 33.8798 30.584C33.1915 29.4878 32.9541 28.5346 33.0253 27.4861C33.049 27.1763 33.2864 27.1048 33.5 27.0095C36.1586 25.7465 38.7935 24.5074 41.4283 23.2444C41.8556 23.0538 42.1642 23.1729 42.5202 23.3397C45.0127 24.5312 47.4813 25.7465 49.9738 26.8665C50.7096 27.2002 50.852 27.6529 50.7334 28.3202C50.6147 28.9874 50.401 29.6546 50.0924 30.2504C49.5465 30.0121 49.9026 29.5831 49.8788 29.2019Z" fill="#808184"/>
<path d="M31.6965 21.6482C31.6965 22.2202 31.4829 22.6491 30.9132 22.7921C30.391 22.9112 29.9637 22.7444 29.7263 22.244C29.4652 21.7436 29.6314 21.3385 30.0349 20.981C31.6965 19.5274 33.5006 18.2167 35.3046 16.9061C35.7082 16.6202 36.1355 16.5963 36.539 16.9061C36.9663 17.2397 37.0612 17.7163 36.8476 18.1929C36.6577 18.6219 36.2541 18.8602 35.7557 18.7648C35.5183 18.7172 35.3046 18.598 35.0672 18.6933C34.7112 18.8363 34.3788 19.027 34.8061 19.4559C34.9485 19.5989 35.091 19.7657 35.2097 19.9325C35.9456 20.7665 35.9456 20.9095 34.8536 21.1955C34.5213 21.2908 34.2602 21.4338 33.9753 21.6244C33.4531 21.9819 32.9309 22.1963 32.5985 21.3623C32.5273 21.1716 32.4086 20.7665 32.0763 20.9572C31.8627 21.0763 31.3879 21.1716 31.6965 21.6482Z" fill="#808184"/>
<path d="M52.0393 21.6242C52.3004 21.1476 51.8494 21.0761 51.612 20.9332C51.3034 20.7425 51.2559 21.1238 51.1372 21.2906C50.4963 22.1723 50.2115 22.1485 49.4756 21.2429C49.4519 21.1953 49.4282 21.1476 49.4044 21.1C49.3332 21.1476 49.262 21.2429 49.1908 21.2429C48.716 21.3383 48.2888 21.0761 48.0276 20.7663C47.7903 20.4804 48.2888 20.2659 48.4549 20.0276C48.5261 19.9085 48.6686 19.8132 48.7398 19.694C48.8347 19.4557 49.3332 19.3366 49.0484 18.9791C48.811 18.6455 48.5261 18.5263 48.0751 18.7408C47.5529 19.0029 47.1494 18.6693 46.8882 18.2404C46.6271 17.8114 46.6984 17.3587 47.0781 17.0251C47.4579 16.6676 47.9327 16.5961 48.3837 16.9059C50.2115 18.2166 52.0155 19.5272 53.7246 21.0285C54.1044 21.3621 54.2706 21.791 54.0095 22.2914C53.7484 22.7919 53.2973 22.9349 52.7989 22.7919C52.2529 22.6251 51.9918 22.22 52.0393 21.6242Z" fill="#808184"/>
<path d="M30.889 45.7637C31.2214 45.3586 31.5537 44.9773 31.886 44.5722C32.0996 44.3101 32.3133 44.2863 32.6456 44.3816C33.9986 44.739 33.8799 44.6676 33.2628 45.9067C32.6456 47.1697 31.5062 47.1697 30.4618 47.408C29.085 47.7416 29.085 47.7178 29.0375 46.3356C29.0138 45.8114 29.0375 45.2633 28.9663 44.739C28.8476 44.048 29.2749 43.5476 29.7734 43.4284C30.2719 43.2854 30.8178 43.7382 31.2926 44.0003C31.4825 44.0956 31.2926 44.3101 31.2213 44.4769C31.0077 44.8582 30.7941 45.2156 30.6042 45.5969C30.7229 45.6208 30.8178 45.6922 30.889 45.7637Z" fill="#808184"/>
<path d="M53.06 45.5018C53.0125 45.3827 52.965 45.2397 52.8938 45.1206C52.2292 43.9052 52.3241 43.6431 53.6772 43.4048C54.3418 43.2857 54.508 43.9052 54.7216 44.358C54.7691 44.4533 54.7216 44.5963 54.7216 44.7155C54.6979 47.8848 54.5554 48.004 51.5408 47.0508C51.2559 46.9555 49.9504 45.3112 49.9029 45.0014C49.8792 44.7393 50.0691 44.7155 50.2115 44.644C50.9473 44.3342 51.6595 44.0721 52.2054 44.9538C52.3716 45.2159 52.6564 45.4065 52.8938 45.621C52.9413 45.5972 53.0125 45.5495 53.06 45.5018Z" fill="#808184"/>
<path d="M31.6965 19.0744C31.5778 18.9553 31.4591 18.86 31.3879 18.7408C30.6995 17.74 30.0111 16.7391 29.299 15.7383C29.0141 15.357 29.2515 15.1902 29.5364 15.1187C29.8212 15.0472 29.9162 14.2608 30.4147 14.8566C31.198 15.8098 31.9813 16.7391 32.7647 17.6447C32.9783 17.9068 33.002 18.0736 32.7172 18.2881C32.3611 18.5264 32.0525 18.7885 31.6965 19.0744Z" fill="#808184"/>
<path d="M54.6504 15.4286C53.8671 16.5486 53.1312 17.621 52.4191 18.7171C52.158 19.1222 51.9206 19.0984 51.6832 18.7886C51.4458 18.455 50.5201 18.4312 50.9948 17.7401C51.707 16.7154 52.5615 15.8099 53.3686 14.8567C53.511 14.6661 53.6534 14.5946 53.8671 14.809C54.057 15.0235 54.3418 15.1903 54.6504 15.4286Z" fill="#808184"/>
<path d="M27.8032 13.9273C27.8507 13.26 28.2068 12.9026 28.8239 12.9026C29.3936 12.9026 29.7734 13.2362 29.7972 13.832C29.8209 14.4754 29.4411 14.8566 28.8477 14.8805C28.2305 14.9043 27.8744 14.523 27.8032 13.9273Z" fill="#808184"/>
<path d="M54.8406 12.8789C55.4815 12.9266 55.9088 13.2125 55.9088 13.8559C55.9088 14.4755 55.5527 14.8806 54.9355 14.9044C54.3658 14.9283 54.0098 14.5708 53.9386 13.9751C53.9148 13.3078 54.2946 12.9981 54.8406 12.8789Z" fill="#808184"/>
<path d="M58.6386 23.4831C58.4012 23.6023 58.0926 23.364 57.9027 23.6738C57.5941 23.6261 57.3093 23.507 57.0244 23.1733C57.6178 23.364 58.1638 23.221 58.6386 23.4831Z" fill="#CD616B"/>
<path d="M49.8788 29.2024C50.0212 29.536 49.7364 29.9649 50.0687 30.2747C49.9738 30.4177 49.8313 30.7752 49.7601 30.3224C49.6889 29.9888 49.6414 29.5598 49.8788 29.2024Z" fill="#808184"/>
<path d="M24.4329 34.1824C24.4329 34.516 24.5279 34.8496 24.4329 35.1356C24.2905 35.5883 24.1955 35.2071 24.1006 35.0641C24.4804 34.8734 24.1481 34.4207 24.4329 34.1824Z" fill="#BE303D"/>
<path d="M50.0689 34.5879C50.0927 34.2781 49.974 33.9445 50.2351 33.6824C50.2351 33.9922 50.2113 34.3019 50.1876 34.6117C50.1876 34.6117 50.1401 34.6356 50.1164 34.6356C50.1164 34.6117 50.0927 34.5879 50.0689 34.5879Z" fill="#E8B6BB"/>
<path d="M53.2739 26.5332C53.2739 26.7238 53.1078 26.9621 53.0365 26.9144C52.8229 26.7476 52.9416 26.5332 53.084 26.3425C53.1552 26.414 53.2027 26.4855 53.2739 26.5332Z" fill="#D57A83"/>
<path d="M29.94 38.5436C28.5395 37.6619 27.7086 36.2559 28.0647 34.5163C28.2071 33.8014 28.0647 33.3248 27.6137 32.8482C27.495 32.7291 27.2339 32.6099 27.3763 32.3478C28.6344 32.7767 28.9905 33.6584 28.4208 34.8499C29.0142 34.9691 29.6076 34.3972 30.1299 34.7546C30.8657 35.255 30.296 35.827 30.0349 36.3512C31.6016 36.4942 32.3849 36.1606 32.9546 35.1121C32.5748 35.0406 32.2187 34.9691 31.744 34.8976C31.9339 34.6593 32.0763 34.4925 32.2187 34.3257C32.0288 34.1112 31.7677 34.135 31.5541 34.0636C30.6758 33.7538 29.845 33.3725 29.5364 32.3716C29.4177 32.0142 29.4177 31.6567 29.7263 31.3946C30.0349 31.1563 30.391 31.204 30.7233 31.3708C31.3405 31.7044 31.6016 32.3001 31.8627 32.9197C31.9102 33.0627 31.8864 33.4201 32.0526 33.3248C32.8597 32.8244 32.5511 33.7776 32.9071 33.8967C33.192 33.8729 33.0733 33.444 33.3107 33.3725C33.6667 33.7061 33.5243 34.2065 33.6667 34.6116C35.2097 33.7538 35.8743 32.3478 35.4232 30.7989C34.6637 31.7997 33.6193 31.6567 33.1445 30.3223C32.6698 29.0355 31.8389 27.8678 31.744 26.438C31.6728 25.6278 31.2455 24.8653 30.5334 24.1742C30.5334 25.0321 30.747 25.7231 30.5097 26.4857C29.7738 25.2227 29.1091 24.0074 27.9935 23.1733C27.9935 23.3878 28.0884 23.5546 28.1834 23.7214C28.5632 24.3887 28.9667 25.0559 29.2041 25.7946C29.3465 26.2236 29.3703 26.6525 28.9905 26.9384C28.5632 27.2721 28.3021 26.8193 28.0172 26.6048C27.7324 26.3904 27.5187 26.0329 26.9728 26.0329C27.3763 26.4857 27.59 26.9146 27.7799 27.3912C27.9223 27.7487 28.0647 28.1538 27.7561 28.4874C27.4475 28.8448 27.0677 28.678 26.6879 28.5589C26.2369 28.4397 25.8334 28.0823 25.24 28.2491C25.8334 28.6542 26.2607 29.0831 26.1657 29.798C26.0708 30.5129 25.4536 30.6797 24.9076 30.918C24.5516 31.0848 24.0768 31.0848 23.8632 31.5376C24.4091 31.6329 24.9788 31.2278 25.5485 31.6329C25.0501 32.4431 24.5278 33.2533 24.5041 34.2304C24.3854 34.4687 24.4566 34.7308 24.4329 34.9691C24.4091 35.1121 24.3854 35.255 24.1718 35.1121C21.6793 31.6806 23.3647 28.7019 25.3112 25.6516C22.1304 27.1053 18.9495 35.6601 20.3263 38.758C20.3975 38.6389 20.4687 38.5436 20.5162 38.4482C21.0859 37.5189 21.9167 37.1376 22.9849 37.1853C24.0531 37.2329 25.0501 37.2806 25.4299 38.5912C25.5485 39.0201 25.9521 39.3776 26.2132 39.7589C26.498 40.1878 26.8541 40.3784 27.4001 40.2831C27.8273 40.2116 28.3021 40.1878 28.7768 40.6644C27.8985 40.5929 27.1627 40.6882 26.6405 41.1887C25.8571 41.9036 25.0026 42.3325 23.9107 42.1895C23.7445 42.1657 23.5546 42.2133 23.3884 42.2848C22.795 42.547 22.4864 43.0236 22.5102 43.6908C22.5339 44.2627 22.7475 44.4772 23.3884 44.6678C23.3647 44.2865 23.1036 43.8576 23.5546 43.524C23.8632 43.9529 23.8394 44.6916 24.694 44.7155C24.5753 44.0482 24.5516 43.4763 25.3586 43.238C25.3824 43.6908 25.1687 44.1912 25.691 44.4533C25.9521 44.5963 26.142 44.6678 26.1182 44.2389C26.0233 43.1665 27.1152 42.8091 27.5425 42.0465C27.8511 41.5461 28.6107 41.8559 29.1566 42.1657C30.9369 43.1904 32.8597 43.8576 34.9248 44.4057C34.1889 43.4763 33.5006 42.6661 32.9071 41.7606C32.0526 40.5453 31.2693 39.3776 29.94 38.5436ZM31.7915 30.3223C31.1743 29.8695 30.6758 29.4882 30.0586 29.0355C31.0319 28.9878 31.6016 29.2499 31.7915 30.3223Z" fill="#B71928"/>
<path d="M58.3297 25.5088C59.4453 27.0577 60.3711 28.5113 60.7034 30.2271C61.0357 31.9666 60.8221 33.6109 59.4928 35.1598C59.3978 33.73 58.9943 32.5862 58.2585 31.5377C58.8994 31.3709 59.4453 31.5377 59.9913 31.4424C59.564 31.1803 59.1367 30.9896 58.7095 30.8228C57.5701 30.3462 57.4039 29.8934 57.9499 28.7734C58.0211 28.6543 58.1635 28.5351 58.0448 28.3922C57.9499 28.273 57.7837 28.2968 57.6175 28.3445C57.4276 28.416 57.2377 28.4875 57.0241 28.559C56.7155 28.6781 56.3832 28.7734 56.0984 28.5351C55.766 28.2492 55.8847 27.8917 55.9559 27.5343C56.0509 27.0815 56.4544 26.7479 56.4307 26.2237C56.0509 26.2475 55.9085 26.5334 55.6711 26.7003C55.41 26.8671 55.1963 27.2245 54.8165 26.9862C54.4842 26.7717 54.4367 26.3905 54.5079 26.033C54.5792 25.7232 54.6741 25.4134 54.8403 25.1037C55.1726 24.4603 55.5287 23.8168 55.861 23.1973C55.7898 23.1496 55.7423 23.1258 55.6711 23.0781C54.6504 24.079 53.8908 25.2705 53.2499 26.5573C53.1787 26.5811 53.1312 26.6764 53.06 26.6049C52.9888 26.5334 53.0362 26.462 53.06 26.3905C53.1074 25.6994 53.1549 25.0083 53.2024 24.1505C52.609 24.6986 52.2529 25.2705 52.1342 25.89C51.8731 27.3198 51.2797 28.6305 50.7574 29.9649C50.5201 30.5845 50.2115 31.1326 49.5468 31.4186C48.9771 31.6807 48.5973 31.2994 48.2175 30.8466C47.9327 32.61 48.5736 33.873 50.0216 34.6117C50.2352 34.3496 49.9978 33.9922 50.1877 33.7062C50.1877 33.7062 50.8524 33.9445 50.8287 33.9445C51.0423 33.6824 50.8049 32.8483 51.6357 33.3249C51.7781 33.3964 51.7544 33.1105 51.8019 32.9913C52.0155 32.3479 52.3241 31.7998 52.8938 31.4186C53.2024 31.2279 53.5585 31.1803 53.9145 31.3709C54.2943 31.6092 54.2468 31.9905 54.1519 32.3241C53.9145 33.3488 53.0837 33.8254 52.1817 34.0398C51.4933 34.2066 51.3746 34.3973 51.9206 34.9215C51.4696 35.0168 51.1135 35.1122 50.6625 35.2075C51.4458 36.3037 52.4428 36.5658 53.6771 36.399C53.6297 36.2798 53.6297 36.1845 53.5585 36.1368C53.2499 35.8032 53.1074 35.422 53.3211 35.0169C53.5585 34.5879 53.9857 34.7309 54.3655 34.8024C54.6741 34.85 55.0064 34.9215 55.315 34.993C55.1726 34.1351 55.0064 33.2534 56.0034 32.7292C55.2201 33.6347 55.1726 33.9922 55.6711 34.8262C55.8135 36.9709 54.4842 38.1862 52.8938 39.2347C52.609 39.4254 52.2292 39.4968 52.0393 39.8543C51.1847 41.4032 50.1403 42.8568 48.9534 44.1913C49.3095 44.3343 49.5706 44.2628 49.8554 44.1675C51.4458 43.6671 52.9888 43.0951 54.4367 42.2849C55.6473 41.6177 56.0034 41.713 56.6443 42.9283C56.668 42.976 56.7155 43.0475 56.7393 43.0713C57.5701 43.262 57.6175 43.953 57.6413 44.6203C58.4958 44.5249 58.3297 43.8577 58.4009 43.3096C59.2317 43.5956 59.0893 44.239 59.018 44.8109C59.8014 44.7156 59.8489 44.0007 60.1574 43.5479C60.5847 43.9292 60.2524 44.382 60.3948 44.7632C61.2731 44.2628 61.463 43.5003 60.917 42.7854C60.5135 42.2373 59.9201 42.1896 59.3266 42.2134C58.7807 42.2134 58.2585 42.2373 57.8312 41.8322C57.0716 41.0696 56.1458 40.6407 55.0302 40.6645C55.2913 40.3071 55.6711 40.2356 55.9559 40.3309C57.0716 40.6883 57.4989 39.8781 57.9736 39.1871C58.2347 38.8296 58.4721 38.4245 58.6145 38.0194C58.8044 37.5666 59.113 37.376 59.5403 37.3283C60.0388 37.2807 60.5372 37.233 61.0357 37.2092C62.1989 37.1615 62.8635 37.9003 63.4807 38.9011C64.4064 32.6577 60.8458 26.8909 58.3297 25.5088ZM52.0155 30.2747C52.1342 29.25 52.6564 29.0594 53.6297 29.0356C53.0362 29.4883 52.609 29.822 52.0155 30.2747Z" fill="#B71928"/>
<path d="M16.5965 54.3804C16.3016 55.3057 16.0066 56.2311 15.7116 57.1564C15.601 57.5636 15.4535 57.9338 14.9005 57.9338C14.3474 57.9338 14.1999 57.6006 14.0893 57.1935C13.7575 56.1571 13.4625 55.1206 12.9463 54.1213C12.9463 55.1206 12.9463 56.12 12.9463 57.1194C12.9463 57.4526 13.02 57.8967 12.467 57.9338C11.8402 57.9708 11.8402 57.5636 11.8402 57.1194C11.8402 55.7869 11.8402 54.4544 11.8402 53.0848C11.8402 52.6407 11.6927 52.0854 12.4301 52.1225C12.9832 52.1225 13.5362 52.0114 13.7206 52.7887C14.0156 53.9362 14.4211 55.0466 14.9005 56.4902C15.3798 55.0466 15.7854 54.0102 16.0803 52.8998C16.3016 52.0854 16.7809 52.0854 17.4077 52.0854C18.2557 52.1225 18.0714 52.7147 18.0714 53.1589C18.0714 54.4544 18.0345 55.7499 18.0714 57.0454C18.1082 57.8597 17.7027 58.0078 17.0759 57.8597C16.7071 56.7123 17.0759 55.5278 16.8546 54.3433C16.8546 54.3063 16.7809 54.2693 16.744 54.2693C16.744 54.2693 16.6703 54.2693 16.5965 54.3804Z" fill="#808184"/>
<path d="M41.1898 54.3804C40.8948 55.3057 40.5999 56.2311 40.3049 57.1564C40.1943 57.5636 40.0468 57.9338 39.4937 57.9338C38.9407 57.9338 38.7932 57.6006 38.6826 57.1935C38.3507 56.1571 38.0558 55.1206 37.5396 54.1213C37.5396 55.1206 37.5396 56.12 37.5396 57.1194C37.5396 57.4526 37.6133 57.8967 37.0602 57.9338C36.4334 57.9708 36.4334 57.5636 36.4334 57.1194C36.4334 55.7869 36.4334 54.4544 36.4334 53.0848C36.4334 52.6407 36.2859 52.0854 37.0234 52.1225C37.5764 52.1225 38.1295 52.0114 38.3138 52.7887C38.6088 53.9362 39.0144 55.0466 39.4937 56.4902C39.973 55.0466 40.3786 54.0102 40.6736 52.8998C40.8948 52.0854 41.3741 52.0854 42.001 52.0854C42.849 52.1225 42.6646 52.7147 42.6646 53.1589C42.6646 54.4544 42.6278 55.7499 42.6646 57.0454C42.7015 57.8597 42.2959 58.0078 41.6691 57.8597C41.3004 56.7123 41.6691 55.5278 41.4479 54.3433C41.4479 54.3063 41.3741 54.2693 41.3373 54.2693C41.3373 54.2693 41.2635 54.2693 41.1898 54.3804Z" fill="#808184"/>
<path d="M32.6358 65.9662C32.6358 65.448 32.6358 64.9668 32.6358 64.4486C32.6358 62.4128 33.2257 61.9316 35.2167 62.1537C36.1385 62.2647 36.6547 62.7089 36.6916 63.6713C36.6916 64.0414 36.9128 64.5596 36.286 64.6706C35.8067 64.7447 35.3642 64.7077 35.3642 64.0044C35.3642 63.3751 34.848 63.4492 34.4424 63.4862C33.8894 63.5232 33.9262 63.9304 33.9262 64.3005C33.9262 65.3739 33.9262 66.4103 33.9262 67.4838C33.9262 67.8539 33.7419 68.3721 34.295 68.5202C34.5899 68.5942 34.9955 68.6682 35.1799 68.3721C35.438 67.9649 35.4748 67.3727 35.1799 67.0766C34.7374 66.6694 34.5162 66.2623 34.848 65.8181C35.143 65.448 35.7329 65.633 36.1754 65.7071C36.9128 65.7811 36.581 66.4103 36.6178 66.8175C36.6547 67.0766 36.6178 67.3727 36.6178 67.6318C36.8391 70.0748 35.4748 70.0748 33.4469 69.7787C32.7095 69.6676 32.562 68.9273 32.562 68.224C32.6358 67.4467 32.6358 66.7064 32.6358 65.9662Z" fill="#B81C2B"/>
<path d="M41.4481 65.781C41.4481 66.4102 41.4112 67.0765 41.4481 67.7057C41.6325 69.8896 40.6001 70.0006 38.6091 69.7785C37.9085 69.7045 37.6135 69.1123 37.6135 68.446C37.5767 66.5953 37.6135 64.7445 37.5767 62.9308C37.5767 62.4496 37.6873 62.1165 38.2403 62.1165C38.8303 62.1165 38.904 62.4126 38.904 62.8938C38.904 64.4484 38.904 66.0401 38.904 67.5947C38.904 68.0018 38.7934 68.483 39.4571 68.52C40.1208 68.557 40.1576 68.0759 40.1576 67.5947C40.1576 66.0771 40.1576 64.5595 40.1576 63.0419C40.1576 62.5607 40.1208 62.0795 40.8582 62.1165C41.485 62.1535 41.4112 62.5977 41.4112 63.0049C41.4481 63.9302 41.4481 64.8556 41.4481 65.781Z" fill="#B91E2C"/>
<path d="M60.3262 57.9339C59.0726 58.267 58.7039 57.6007 58.8514 56.2312C58.962 55.1948 58.8883 54.1214 58.8514 53.0479C58.8145 52.3447 59.0358 52.0115 59.7732 52.0856C60.3631 52.1226 60.9531 52.0856 61.543 52.0856C61.9117 52.0856 62.1698 52.1596 62.1698 52.6038C62.1698 53.0479 61.9117 53.122 61.543 53.122C61.3586 53.122 61.1743 53.122 60.9899 53.122C60.5475 53.122 60.1419 53.122 60.1788 53.7512C60.1788 54.2694 60.5475 54.3064 60.9162 54.3064C61.0637 54.3064 61.1743 54.3064 61.3218 54.3064C61.7273 54.3064 62.0592 54.3805 62.0592 54.8987C62.0592 55.4909 61.6167 55.3428 61.248 55.3799C60.8056 55.4539 60.1788 55.1208 60.105 55.9721C60.0682 56.6754 60.4 56.8234 60.9899 56.8234C61.4324 56.8234 62.1698 56.5643 62.0961 57.4157C62.0223 58.23 61.3218 57.7488 60.8793 57.8598C60.8056 57.9339 60.695 57.9339 60.3262 57.9339Z" fill="#808184"/>
<path d="M19.5835 54.9356C19.5835 54.7506 19.5835 54.5655 19.5835 54.3804C19.5835 51.8264 19.6204 51.7894 22.2013 52.0855C22.6069 52.1225 22.9388 52.1225 22.9019 52.6777C22.865 53.1219 22.57 53.1589 22.2382 53.1589C22.017 53.1589 21.7958 53.1589 21.5377 53.1589C21.1321 53.1589 20.8002 53.1959 20.8002 53.7141C20.8002 54.2323 21.0952 54.3434 21.5008 54.3434C21.6851 54.3434 21.8695 54.3434 22.0539 54.3434C22.4226 54.3434 22.6807 54.4174 22.7175 54.8616C22.7544 55.3058 22.4594 55.3428 22.0907 55.4168C21.5745 55.4908 20.7634 55.0467 20.7634 56.1201C20.7634 57.2675 21.6483 56.7864 22.1645 56.8604C22.57 56.9344 22.9019 56.9344 22.865 57.4526C22.8281 57.9338 22.4963 57.8968 22.2013 57.9338C22.1645 57.9338 22.1276 57.9338 22.0539 57.9338C19.5835 58.0819 19.5835 58.0819 19.5835 54.9356Z" fill="#808184"/>
<path d="M51.8826 53.1588C51.477 53.1588 50.9608 52.9737 50.8133 53.4919C50.629 54.0841 51.182 54.2322 51.5876 54.4543C52.1775 54.7874 52.8781 55.0465 53.0625 55.7868C53.2468 56.5271 53.2099 57.3044 52.3988 57.6745C51.477 58.1187 50.5552 58.1187 49.6334 57.6745C49.3753 57.5265 49.4122 57.1933 49.486 56.8972C49.5966 56.416 49.9284 56.7492 50.1496 56.7862C50.3709 56.8232 50.5921 56.8602 50.8133 56.9342C51.2558 57.0453 51.6982 57.0083 51.8826 56.5641C52.1038 56.0829 51.6614 55.8238 51.2926 55.6387C51.1452 55.5647 50.9608 55.4537 50.8133 55.3796C49.9284 54.9355 49.2279 54.3062 49.5597 53.1958C49.9284 52.0483 50.9239 51.9373 51.9195 52.0483C52.3619 52.0853 53.0625 52.0113 52.9887 52.7516C52.8781 53.4919 52.2882 53.1958 51.8826 53.1588Z" fill="#808184"/>
<path d="M70.9818 53.1589C70.4656 53.1218 69.9125 52.9738 69.7282 53.566C69.5807 54.0472 70.0969 54.2323 70.4656 54.4174C70.7974 54.6024 71.1293 54.7505 71.4242 54.9726C72.051 55.3797 72.1985 55.972 72.0879 56.6382C71.9773 57.3785 71.4611 57.7487 70.7974 57.8967C70.3918 57.9708 69.9862 57.9708 69.5807 57.9337C69.0276 57.8967 68.3271 57.8967 68.4745 57.0824C68.622 56.157 69.2488 56.8973 69.6544 56.8973C70.1337 56.8973 70.6499 57.0454 70.8712 56.5642C71.1293 55.972 70.5762 55.7869 70.1706 55.5648C69.9863 55.4538 69.765 55.3427 69.5807 55.2317C68.4745 54.5654 68.1796 53.566 68.8064 52.7147C69.3226 52.0114 71.1661 51.7893 71.8667 52.3075C72.0879 52.4926 72.0879 52.6407 72.0142 52.8998C71.7192 53.529 71.2767 53.1589 70.9818 53.1589Z" fill="#808184"/>
<path d="M45.9831 65.3367C45.9831 65.7439 46.02 66.188 45.9831 66.5952C45.7987 67.9647 46.0568 68.8531 47.716 68.557C48.2691 68.4459 48.4166 68.8161 48.4166 69.3343C48.4166 69.9265 48.011 69.8155 47.6792 69.8525C44.7295 70.1116 44.7295 70.1116 44.7295 67.2244C44.7295 65.7809 44.7295 64.3743 44.7295 62.9307C44.7295 62.4496 44.8032 62.1164 45.3932 62.1534C45.9094 62.1905 45.9831 62.4866 45.9831 62.8937C45.9831 63.671 45.9831 64.5224 45.9831 65.3367Z" fill="#B81B2A"/>
<path d="M25.815 52.0854C26.3312 52.0854 26.8106 52.0854 27.3268 52.0854C27.6217 52.0854 27.8798 52.1225 27.9167 52.5296C27.9536 52.8998 27.8061 53.1959 27.4005 53.1589C26.405 53.0478 26.405 53.6771 26.4419 54.3804C26.4787 55.3057 26.4419 56.2311 26.4419 57.1564C26.4419 57.6376 26.3312 57.9338 25.7782 57.9338C25.1514 57.9338 25.1514 57.5636 25.1514 57.1194C25.1514 56.3051 25.1514 55.4538 25.1514 54.6395C25.1514 53.8621 25.3357 53.0108 24.0452 53.1589C23.7134 53.1959 23.5659 52.9738 23.5659 52.6407C23.5659 52.1965 23.824 52.1225 24.1927 52.1225C24.7089 52.0854 25.262 52.0854 25.815 52.0854Z" fill="#808184"/>
<path d="M43.697 66.0768C43.697 67.0762 43.697 68.1126 43.697 69.112C43.697 69.4821 43.697 69.8523 43.1439 69.8523C42.6277 69.8523 42.3696 69.7042 42.3696 69.149C42.3696 67.0762 42.3696 65.0034 42.3696 62.9305C42.3696 62.4864 42.4434 62.1162 43.0333 62.1162C43.6232 62.1162 43.697 62.4493 43.697 62.8935C43.697 63.9669 43.697 65.0404 43.697 66.0768Z" fill="#BB2634"/>
<path d="M58.0032 52.6777C58.0032 53.0478 57.782 53.1959 57.487 53.1589C56.3071 53.0108 56.4178 53.7881 56.4178 54.5284C56.4546 55.2687 56.4546 56.009 56.4178 56.7493C56.3809 57.1935 56.7127 57.8597 55.8647 57.8967C54.906 57.9337 55.2748 57.1564 55.2379 56.6753C55.1641 55.8979 55.201 55.1206 55.2379 54.3433C55.2748 53.603 55.201 53.0478 54.2424 53.1589C53.8737 53.1959 53.6156 53.0478 53.6524 52.6037C53.6524 52.2705 53.8368 52.0854 54.1318 52.0854C55.2748 52.0854 56.4178 52.0854 57.5608 52.0854C57.9295 52.1225 58.0032 52.3445 58.0032 52.6777Z" fill="#808184"/>
<path d="M16.5972 54.3808C16.634 54.1217 16.6709 53.8626 17.1134 53.6775C17.1134 55.1211 17.1134 56.4906 17.1134 57.8601C16.4866 57.3049 16.929 56.5646 16.8184 55.9354C16.7078 55.4542 17.0396 54.862 16.5972 54.3808Z" fill="#808184"/>
<path d="M41.1895 54.3808C41.2263 54.1217 41.2632 53.8626 41.7056 53.6775C41.7056 55.1211 41.7056 56.4906 41.7056 57.8601C41.0788 57.3049 41.5213 56.5646 41.4107 55.9354C41.3369 55.4542 41.6319 54.862 41.1895 54.3808Z" fill="#808184"/>
<path d="M53.2098 64.0414C53.173 62.3387 52.7674 62.1906 50.5182 62.1166C48.8222 62.0426 49.4858 63.227 49.4121 64.0043C49.3384 64.6706 49.4121 65.3739 49.4121 66.0772C49.4121 67.0395 49.4121 68.0019 49.4121 68.9643C49.4121 69.2234 49.449 69.6676 49.5596 69.7046C50.4814 70.0007 51.44 69.9637 52.3987 69.7416C53.0623 69.5935 53.2467 68.9273 53.2467 68.335C53.2467 66.8915 53.2467 65.4479 53.2098 64.0414ZM51.2557 68.5571C50.7395 68.5571 50.6657 68.224 50.6657 67.8168C50.6657 66.5954 50.6657 65.3369 50.6657 64.1154C50.6657 63.6712 50.7763 63.4121 51.2925 63.4491C51.735 63.4491 51.9562 63.6342 51.9562 64.1154C51.9562 64.7446 51.9562 65.4109 51.9562 66.0401C51.9562 66.6324 51.9562 67.2246 51.9562 67.8168C51.9562 68.298 51.7718 68.5571 51.2557 68.5571Z" fill="#B81C2B"/>
<path d="M67.5158 57.0828C66.9628 56.2315 66.1885 55.5652 67.2578 54.3808C67.8477 53.7145 67.4052 52.7151 66.4097 52.2709C65.746 51.9748 65.0455 52.1229 64.3818 52.0489C63.7181 52.0118 63.4969 52.2709 63.4969 52.9372C63.5338 54.2327 63.4969 55.5282 63.4969 56.8237C63.4969 57.3049 63.3126 57.9342 64.1606 57.8601C64.9349 57.8231 64.603 57.1939 64.6768 56.8237C64.7505 56.4536 64.4187 55.8984 64.9349 55.7503C65.5248 55.5652 65.6354 56.2315 65.8567 56.6016C66.336 57.3049 66.5941 58.3043 67.9214 57.7861C67.7371 57.49 67.6265 57.3049 67.5158 57.0828ZM65.2667 54.6399C64.7505 54.6399 64.6768 54.3808 64.6768 53.9366C64.6768 53.4924 64.6768 53.0853 65.2298 53.1593C65.7829 53.1593 66.1516 53.3444 66.1516 53.8256C66.1516 54.4178 65.7829 54.6029 65.2667 54.6399Z" fill="#808184"/>
<path d="M31.8981 52.7891C31.7137 52.2709 31.4925 52.0488 30.9394 52.0488C30.3126 52.0488 30.0545 52.3079 29.8702 52.8631C29.4277 54.1957 28.9115 55.4542 28.5428 56.7867C28.4322 57.1198 27.916 57.601 28.4691 57.8601C28.9853 58.0822 29.5752 57.9712 29.6858 57.1939C29.7964 56.4165 30.4232 56.5276 30.9763 56.5276C31.4556 56.5276 32.0087 56.3795 32.1562 57.1198C32.3037 58.0082 32.8936 58.0452 33.6679 57.7491C33.0411 56.1204 32.4512 54.4548 31.8981 52.7891ZM31.2713 55.3801C31.1606 55.5282 30.6076 55.5282 30.497 55.3801C29.9808 54.7139 30.7182 54.1587 30.8657 53.5664C31.0869 54.1957 31.7875 54.7139 31.2713 55.3801Z" fill="#808184"/>
<path d="M48.7113 57.0084C48.2319 55.5648 47.7158 54.1583 47.2364 52.7147C47.0521 52.1595 46.6834 52.0854 46.1672 52.0854C45.6878 52.0854 45.4298 52.1965 45.2454 52.7147C44.6923 54.4174 44.0655 56.083 43.4756 57.8227C44.1024 57.9708 44.7292 58.1928 44.9136 57.4155C45.0979 56.6382 45.5035 56.5272 46.204 56.5272C46.9046 56.5272 47.4577 56.6012 47.6051 57.4526C47.6789 58.0078 48.1951 57.9708 48.6007 57.8967C49.1906 57.7117 48.785 57.3045 48.7113 57.0084ZM46.7202 55.3797C46.4253 55.4538 46.0934 55.4538 45.7985 55.3797C45.5035 55.3057 45.651 55.0096 45.7247 54.7875C45.9091 54.3063 45.8722 53.7881 46.3147 53.3439C46.4621 53.8621 46.6465 54.3063 46.794 54.7875C46.8309 54.9726 47.0152 55.2687 46.7202 55.3797Z" fill="#808184"/>
</g>
</svg>
