<?xml version="1.0" encoding="utf-8"?>
<!-- Generator: Adobe Illustrator 18.0.0, SVG Export Plug-In . SVG Version: 6.00 Build 0)  -->
<!DOCTYPE svg PUBLIC "-//W3C//DTD SVG 1.1//EN" "http://www.w3.org/Graphics/SVG/1.1/DTD/svg11.dtd">
<svg version="1.1" id="Layer_1" xmlns="http://www.w3.org/2000/svg" xmlns:xlink="http://www.w3.org/1999/xlink" x="0px" y="0px"
	 viewBox="0 0 30 30" enable-background="new 0 0 30 30" xml:space="preserve">
<path fill="#F9F9F9" d="M29,8.1c-0.3-1.6-1.6-2.7-3.1-3C23.3,4.7,19.7,4.2,15,4.2S6.6,4.7,4.1,5C2.5,5.3,1.3,6.5,1,8
	c-0.3,1.7-0.6,3.9-0.6,7c0,3.1,0.3,5.2,0.6,6.9c0.3,1.6,1.6,2.7,3.1,3c2.5,0.4,6.3,0.8,10.9,0.8c4.6,0,8.4-0.4,10.8-0.7
	c1.6-0.2,2.8-1.4,3.1-3c0.3-1.7,0.6-3.8,0.7-6.9C29.6,12,29.3,9.8,29,8.1z M11.8,19.8v-9.5l8.7,4.8L11.8,19.8z"/>
</svg>
