<?xml version="1.0" encoding="utf-8"?>
<!-- Generator: Adobe Illustrator 18.0.0, SVG Export Plug-In . SVG Version: 6.00 Build 0)  -->
<!DOCTYPE svg PUBLIC "-//W3C//DTD SVG 1.1//EN" "http://www.w3.org/Graphics/SVG/1.1/DTD/svg11.dtd">
<svg version="1.1" id="Layer_1" xmlns="http://www.w3.org/2000/svg" xmlns:xlink="http://www.w3.org/1999/xlink" x="0px" y="0px"
	 viewBox="0 0 32 32" enable-background="new 0 0 32 32" xml:space="preserve">
<g>
	<g transform="scale(5.12,5.12)">
		<path fill="#FFFFFF" d="M4.8,1H1.5C1.1,1,1,1.1,1,1.5v3.3c0,0.3,0.2,0.5,0.5,0.5h3.3c0.3,0,0.5-0.2,0.5-0.5V1.5C5.3,1.1,5,1,4.8,1
			z M4.3,2.4H4.2c-0.2,0-0.3,0-0.3,0.2v0.3h0.5L4.2,3.5H3.8v1.6H3.4V3.5H2.9V3h0.5V2.7c0-0.5,0.2-0.8,0.6-0.8c0.3,0,0.5,0.2,0.5,0.2
			v0.3H4.3z"/>
	</g>
</g>
</svg>
